<?xml version="1.0" encoding="UTF-8" standalone="no"?>
<!-- Generator: Adobe Illustrator 22.0.1, SVG Export Plug-In . SVG Version: 6.00 Build 0)  -->

<svg
   xmlns:dc="http://purl.org/dc/elements/1.1/"
   xmlns:cc="http://creativecommons.org/ns#"
   xmlns:rdf="http://www.w3.org/1999/02/22-rdf-syntax-ns#"
   xmlns:svg="http://www.w3.org/2000/svg"
   xmlns="http://www.w3.org/2000/svg"
   xmlns:sodipodi="http://sodipodi.sourceforge.net/DTD/sodipodi-0.dtd"
   xmlns:inkscape="http://www.inkscape.org/namespaces/inkscape"
   version="1.1"
   id="Layer_1"
   x="0px"
   y="0px"
   viewBox="0 0 543.79999 359.29999"
   xml:space="preserve"
   sodipodi:docname="bubblediag.svg"
   width="543.79999"
   height="359.29999"
   inkscape:version="0.92.2 5c3e80d, 2017-08-06"><metadata
     id="metadata5349"><rdf:RDF><cc:Work
         rdf:about=""><dc:format>image/svg+xml</dc:format><dc:type
           rdf:resource="http://purl.org/dc/dcmitype/StillImage" /><dc:title></dc:title></cc:Work></rdf:RDF></metadata><defs
     id="defs5347" /><sodipodi:namedview
     pagecolor="#ffffff"
     bordercolor="#666666"
     borderopacity="1"
     objecttolerance="10"
     gridtolerance="10"
     guidetolerance="10"
     inkscape:pageopacity="0"
     inkscape:pageshadow="2"
     inkscape:window-width="1240"
     inkscape:window-height="864"
     id="namedview5345"
     showgrid="false"
     fit-margin-top="0"
     fit-margin-left="0"
     fit-margin-right="0"
     fit-margin-bottom="0"
     inkscape:zoom="0.405"
     inkscape:cx="271.9"
     inkscape:cy="179.65"
     inkscape:window-x="0"
     inkscape:window-y="0"
     inkscape:window-maximized="0"
     inkscape:current-layer="Layer_1" /><style
     type="text/css"
     id="style5159">
	.st0{fill:#404040;}
	.st1{fill:#FFFFFF;}
	.st2{fill:#B18BE8;}
	.st3{fill:#4ED1A1;}
	.st4{fill:#FFFFFF;stroke:#404040;stroke-width:4;stroke-linecap:round;stroke-linejoin:round;stroke-miterlimit:10;}
	.st5{fill:#59AFE1;stroke:#404040;stroke-width:4;stroke-linejoin:round;stroke-miterlimit:10;}
	.st6{fill:#B3E3FF;stroke:#404040;stroke-width:4;stroke-linejoin:round;stroke-miterlimit:10;}
	.st7{fill:none;stroke:#404040;stroke-width:4;stroke-linecap:round;stroke-linejoin:round;stroke-miterlimit:10;}
	.st8{fill:#B18BE8;stroke:#404040;stroke-width:4;stroke-linecap:round;stroke-linejoin:round;stroke-miterlimit:10;}
	.st9{fill:#4ED1A1;stroke:#404040;stroke-width:4;stroke-miterlimit:10;}
</style><g
     id="git_x5F_pull_x5F_2_1_"
     transform="translate(-128.1,-51.1)"><g
       id="g5163"><path
         class="st0"
         d="M 517.9,272.9 H 259.6 c -1.1,0 -2,-0.9 -2,-2 0,-1.1 0.9,-2 2,-2 21.5,0 39,-17.5 39,-39 0,-23.7 19.3,-43 43,-43 h 220 c 1.1,0 2,0.9 2,2 0,1.1 -0.9,2 -2,2 h -220 c -21.5,0 -39,17.5 -39,39 0,17.2 -10.2,32.2 -24.9,39 h 240.2 c 1.1,0 2,0.9 2,2 0,1.1 -0.9,2 -2,2 z"
         id="path5161"
         inkscape:connector-curvature="0"
         style="fill:#404040" /></g><g
       id="g5169"><circle
         class="st1"
         cx="434.60001"
         cy="270.89999"
         id="ellipse5165"
         r="21"
         style="fill:#ffffff" /><path
         class="st0"
         d="m 434.7,293.9 c -6.1,0 -11.9,-2.4 -16.3,-6.7 -4.9,-4.9 -7.3,-11.7 -6.6,-18.6 1.1,-10.8 9.7,-19.5 20.5,-20.5 v 0 c 6.9,-0.7 13.7,1.7 18.6,6.6 4.9,4.9 7.3,11.7 6.6,18.6 -1.1,10.8 -9.7,19.5 -20.5,20.5 -0.8,0 -1.6,0.1 -2.3,0.1 z m -2,-41.9 c -8.9,0.9 -16.1,8 -17,17 -0.6,5.7 1.4,11.3 5.5,15.4 4,4 9.6,6 15.4,5.5 8.9,-0.9 16.1,-8 17,-17 0.6,-5.7 -1.4,-11.3 -5.5,-15.4 -4.1,-4.1 -9.7,-6.1 -15.4,-5.5 z"
         id="path5167"
         inkscape:connector-curvature="0"
         style="fill:#404040" /></g><g
       id="g5175"><circle
         class="st1"
         cx="351.29999"
         cy="270.89999"
         r="21"
         id="circle5171"
         style="fill:#ffffff" /><path
         class="st0"
         d="m 351.3,293.9 c -12.7,0 -23,-10.3 -23,-23 0,-12.7 10.3,-23 23,-23 12.7,0 23,10.3 23,23 0,12.7 -10.3,23 -23,23 z m 0,-42 c -10.5,0 -19,8.5 -19,19 0,10.5 8.5,19 19,19 10.5,0 19,-8.5 19,-19 0,-10.5 -8.5,-19 -19,-19 z"
         id="path5173"
         inkscape:connector-curvature="0"
         style="fill:#404040" /></g><g
       id="g5181"><circle
         class="st2"
         cx="268.10001"
         cy="270.89999"
         r="21"
         id="circle5177"
         style="fill:#b18be8" /><path
         class="st0"
         d="m 268.1,293.9 c -12.7,0 -23,-10.3 -23,-23 0,-12.7 10.3,-23 23,-23 12.7,0 23,10.3 23,23 0,12.7 -10.3,23 -23,23 z m 0,-42 c -10.5,0 -19,8.5 -19,19 0,10.5 8.5,19 19,19 10.5,0 19,-8.5 19,-19 0,-10.5 -8.5,-19 -19,-19 z"
         id="path5179"
         inkscape:connector-curvature="0"
         style="fill:#404040" /></g><g
       id="g5187"><path
         class="st3"
         d="m 449.7,53.1 h 220.2 v 50 H 449.7 Z"
         id="path5183"
         inkscape:connector-curvature="0"
         style="fill:#4ed1a1" /><path
         class="st0"
         d="M 671.9,105.1 H 447.7 v -54 h 224.2 z m -220.2,-4 h 216.2 v -46 H 451.7 Z"
         id="path5185"
         inkscape:connector-curvature="0"
         style="fill:#404040" /></g><g
       id="g5191"><path
         class="st0"
         d="m 560.2,150.4 v 0 c -0.5,0 -1,-0.2 -1.4,-0.6 l -10.9,-10.9 c -0.8,-0.8 -0.8,-2 0,-2.8 0.8,-0.8 2,-0.8 2.8,0 l 7.5,7.5 v -20.9 c 0,-1.1 0.9,-2 2,-2 1.1,0 2,0.9 2,2 v 20.9 l 7.5,-7.5 c 0.8,-0.8 2,-0.8 2.8,0 0.8,0.8 0.8,2 0,2.8 l -10.9,10.9 c -0.3,0.4 -0.8,0.6 -1.4,0.6 z"
         id="path5189"
         inkscape:connector-curvature="0"
         style="fill:#404040" /></g><g
       id="g5233"><path
         class="st0"
         d="m 483.1,82.8 v -8.3 l -3.6,8.3 h -1.4 l -3.6,-8.3 v 8.3 H 473 V 72.1 h 2 l 3.8,8.7 3.8,-8.7 h 2 v 10.7 c 0,0 -1.5,0 -1.5,0 z"
         id="path5193"
         inkscape:connector-curvature="0"
         style="fill:#404040" /><path
         class="st0"
         d="m 489.3,78.7 2,-0.3 c 0.4,-0.1 0.6,-0.3 0.6,-0.5 0,-0.7 -0.5,-1.3 -1.6,-1.3 -1,0 -1.6,0.6 -1.6,1.5 l -1.4,-0.3 c 0.2,-1.4 1.4,-2.4 3,-2.4 2.2,0 3,1.2 3,2.7 v 3.6 c 0,0.6 0.1,1 0.1,1.2 H 492 c 0,-0.2 -0.1,-0.5 -0.1,-1 -0.3,0.5 -1,1.2 -2.3,1.2 -1.5,0 -2.4,-1 -2.4,-2.2 -0.1,-1.3 0.9,-2.1 2.1,-2.2 z m 2.5,1 v -0.3 l -2.2,0.3 c -0.6,0.1 -1.1,0.4 -1.1,1.1 0,0.5 0.5,1.1 1.2,1.1 1.2,-0.1 2.1,-0.6 2.1,-2.2 z"
         id="path5195"
         inkscape:connector-curvature="0"
         style="fill:#404040" /><path
         class="st0"
         d="m 496.6,80.5 c 0.1,0.8 0.7,1.4 1.7,1.4 0.8,0 1.2,-0.5 1.2,-1 0,-0.5 -0.3,-0.8 -0.9,-0.9 l -1.2,-0.3 c -1.1,-0.2 -1.8,-1 -1.8,-2 0,-1.2 1.2,-2.3 2.6,-2.3 2,0 2.6,1.3 2.8,1.9 l -1.3,0.5 c -0.1,-0.4 -0.4,-1.2 -1.5,-1.2 -0.7,0 -1.2,0.5 -1.2,1 0,0.4 0.3,0.8 0.8,0.9 l 1.2,0.3 c 1.3,0.3 2,1.1 2,2.2 0,1 -0.9,2.2 -2.7,2.2 -2,0 -2.8,-1.3 -3,-2.1 z"
         id="path5197"
         inkscape:connector-curvature="0"
         style="fill:#404040" /><path
         class="st0"
         d="m 505.3,75.5 h 1.6 v 1.3 h -1.6 v 3.8 c 0,0.7 0.3,1 1,1 0.2,0 0.4,0 0.6,-0.1 v 1.2 c -0.1,0 -0.5,0.1 -1,0.1 -1.2,0 -2,-0.8 -2,-2.1 v -4 h -1.4 v -1.3 h 0.4 c 0.8,0 1.1,-0.5 1.1,-1.1 v -1.2 h 1.3 z"
         id="path5199"
         inkscape:connector-curvature="0"
         style="fill:#404040" /><path
         class="st0"
         d="m 515.5,80.7 c -0.4,1.3 -1.6,2.3 -3.3,2.3 -1.9,0 -3.6,-1.4 -3.6,-3.9 0,-2.3 1.6,-3.8 3.5,-3.8 2.2,0 3.5,1.5 3.5,3.8 0,0.2 0,0.4 0,0.5 h -5.5 c 0,1.3 1,2.2 2.2,2.2 1.2,0 1.8,-0.6 2,-1.5 z m -1.4,-2.3 c 0,-1 -0.7,-1.9 -2,-1.9 -1.2,0 -1.9,0.9 -2,1.9 z"
         id="path5201"
         inkscape:connector-curvature="0"
         style="fill:#404040" /><path
         class="st0"
         d="m 521.9,77 c -0.2,0 -0.4,0 -0.6,0 -1.2,0 -2,0.6 -2,2.2 v 3.6 h -1.4 v -7.3 h 1.4 v 1.3 c 0.5,-1.1 1.4,-1.4 2.2,-1.4 0.2,0 0.4,0 0.5,0 V 77 Z"
         id="path5203"
         inkscape:connector-curvature="0"
         style="fill:#404040" /><path
         class="st0"
         d="m 535.1,79.2 c 0,2.2 -1.5,3.9 -3.7,3.9 -2.2,0 -3.7,-1.6 -3.7,-3.9 0,-2.2 1.5,-3.8 3.7,-3.8 2.2,0 3.7,1.6 3.7,3.8 z m -1.4,0 c 0,-1.7 -1.1,-2.6 -2.3,-2.6 -1.2,0 -2.3,0.9 -2.3,2.6 0,1.7 1.1,2.6 2.3,2.6 1.2,0 2.3,-0.9 2.3,-2.6 z"
         id="path5205"
         inkscape:connector-curvature="0"
         style="fill:#404040" /><path
         class="st0"
         d="m 538.9,82.8 h -1.4 v -7.3 h 1.4 v 1 c 0.5,-0.9 1.4,-1.3 2.2,-1.3 1.7,0 2.6,1.3 2.6,2.9 v 4.6 h -1.4 v -4.4 c 0,-1 -0.4,-1.8 -1.7,-1.8 -1.1,0 -1.7,0.9 -1.7,2 z"
         id="path5207"
         inkscape:connector-curvature="0"
         style="fill:#404040" /><path
         class="st0"
         d="m 554.8,77 c -0.2,0 -0.4,0 -0.6,0 -1.2,0 -2,0.6 -2,2.2 v 3.6 h -1.4 v -7.3 h 1.4 v 1.3 c 0.5,-1.1 1.4,-1.4 2.2,-1.4 0.2,0 0.4,0 0.5,0 V 77 Z"
         id="path5209"
         inkscape:connector-curvature="0"
         style="fill:#404040" /><path
         class="st0"
         d="m 563.1,80.7 c -0.4,1.3 -1.6,2.3 -3.3,2.3 -1.9,0 -3.6,-1.4 -3.6,-3.9 0,-2.3 1.6,-3.8 3.5,-3.8 2.2,0 3.5,1.5 3.5,3.8 0,0.2 0,0.4 0,0.5 h -5.5 c 0,1.3 1,2.2 2.2,2.2 1.2,0 1.8,-0.6 2,-1.5 z m -1.4,-2.3 c 0,-1 -0.7,-1.9 -2,-1.9 -1.2,0 -1.9,0.9 -2,1.9 z"
         id="path5211"
         inkscape:connector-curvature="0"
         style="fill:#404040" /><path
         class="st0"
         d="m 565.5,82.8 v -7.3 h 1.4 v 1 c 0.5,-0.8 1.4,-1.2 2.2,-1.2 0.9,0 1.8,0.4 2.2,1.4 0.6,-1 1.5,-1.4 2.4,-1.4 1.3,0 2.5,0.9 2.5,2.8 v 4.7 h -1.4 v -4.6 c 0,-0.9 -0.5,-1.7 -1.5,-1.7 -1,0 -1.7,0.8 -1.7,1.8 v 4.4 h -1.4 v -4.6 c 0,-0.9 -0.5,-1.7 -1.5,-1.7 -1,0 -1.7,0.8 -1.7,1.8 v 4.4 h -1.5 z"
         id="path5213"
         inkscape:connector-curvature="0"
         style="fill:#404040" /><path
         class="st0"
         d="m 585.8,79.2 c 0,2.2 -1.5,3.9 -3.7,3.9 -2.2,0 -3.7,-1.6 -3.7,-3.9 0,-2.2 1.5,-3.8 3.7,-3.8 2.2,0 3.7,1.6 3.7,3.8 z m -1.5,0 c 0,-1.7 -1.1,-2.6 -2.3,-2.6 -1.2,0 -2.3,0.9 -2.3,2.6 0,1.7 1.1,2.6 2.3,2.6 1.2,0 2.3,-0.9 2.3,-2.6 z"
         id="path5215"
         inkscape:connector-curvature="0"
         style="fill:#404040" /><path
         class="st0"
         d="m 590,75.5 h 1.6 v 1.3 H 590 v 3.8 c 0,0.7 0.3,1 1,1 0.2,0 0.4,0 0.6,-0.1 v 1.2 c -0.1,0 -0.5,0.1 -1,0.1 -1.2,0 -2,-0.8 -2,-2.1 v -4 h -1.4 v -1.3 h 0.4 c 0.8,0 1.1,-0.5 1.1,-1.1 v -1.2 h 1.3 z"
         id="path5217"
         inkscape:connector-curvature="0"
         style="fill:#404040" /><path
         class="st0"
         d="m 600.2,80.7 c -0.4,1.3 -1.6,2.3 -3.3,2.3 -1.9,0 -3.6,-1.4 -3.6,-3.9 0,-2.3 1.6,-3.8 3.5,-3.8 2.2,0 3.5,1.5 3.5,3.8 0,0.2 0,0.4 0,0.5 h -5.5 c 0,1.3 1,2.2 2.2,2.2 1.2,0 1.8,-0.6 2,-1.5 z m -1.4,-2.3 c 0,-1 -0.7,-1.9 -2,-1.9 -1.2,0 -1.9,0.9 -2,1.9 z"
         id="path5219"
         inkscape:connector-curvature="0"
         style="fill:#404040" /><path
         class="st0"
         d="m 613.7,79.2 c 0,2.2 -1.5,3.9 -3.7,3.9 -2.2,0 -3.7,-1.6 -3.7,-3.9 0,-2.2 1.5,-3.8 3.7,-3.8 2.2,0 3.7,1.6 3.7,3.8 z m -1.4,0 c 0,-1.7 -1.1,-2.6 -2.3,-2.6 -1.2,0 -2.3,0.9 -2.3,2.6 0,1.7 1.1,2.6 2.3,2.6 1.2,0 2.3,-0.9 2.3,-2.6 z"
         id="path5221"
         inkscape:connector-curvature="0"
         style="fill:#404040" /><path
         class="st0"
         d="m 620.1,77 c -0.2,0 -0.4,0 -0.6,0 -1.2,0 -2,0.6 -2,2.2 v 3.6 h -1.4 v -7.3 h 1.4 v 1.3 c 0.5,-1.1 1.4,-1.4 2.2,-1.4 0.2,0 0.4,0 0.5,0 V 77 Z"
         id="path5223"
         inkscape:connector-curvature="0"
         style="fill:#404040" /><path
         class="st0"
         d="m 622.9,71.8 c 0.6,0 1,0.5 1,1 0,0.6 -0.5,1 -1,1 -0.6,0 -1,-0.5 -1,-1 0,-0.6 0.4,-1 1,-1 z m -0.7,11 v -7.3 h 1.4 v 7.3 z"
         id="path5225"
         inkscape:connector-curvature="0"
         style="fill:#404040" /><path
         class="st0"
         d="m 627.4,82.9 c 0.1,1 0.9,1.8 2,1.8 1.5,0 2.2,-0.8 2.2,-2.4 v -1 c -0.3,0.7 -1.1,1.2 -2.2,1.2 -1.9,0 -3.3,-1.5 -3.3,-3.5 0,-2 1.3,-3.5 3.3,-3.5 1.1,0 1.9,0.4 2.2,1.1 v -1 h 1.4 v 6.7 c 0,1.8 -0.9,3.6 -3.6,3.6 -1.8,0 -3.2,-1.1 -3.3,-2.7 z m 4.2,-4 c 0,-1.4 -0.8,-2.3 -2.1,-2.3 -1.3,0 -2.1,0.9 -2.1,2.3 0,1.4 0.8,2.3 2.1,2.3 1.3,0.1 2.1,-0.9 2.1,-2.3 z"
         id="path5227"
         inkscape:connector-curvature="0"
         style="fill:#404040" /><path
         class="st0"
         d="m 636.5,71.8 c 0.6,0 1,0.5 1,1 0,0.6 -0.5,1 -1,1 -0.6,0 -1,-0.5 -1,-1 0,-0.6 0.4,-1 1,-1 z m -0.7,11 v -7.3 h 1.4 v 7.3 z"
         id="path5229"
         inkscape:connector-curvature="0"
         style="fill:#404040" /><path
         class="st0"
         d="m 641.6,82.8 h -1.4 v -7.3 h 1.4 v 1 c 0.5,-0.9 1.4,-1.3 2.2,-1.3 1.7,0 2.6,1.3 2.6,2.9 v 4.6 H 645 v -4.4 c 0,-1 -0.4,-1.8 -1.7,-1.8 -1.1,0 -1.7,0.9 -1.7,2 z"
         id="path5231"
         inkscape:connector-curvature="0"
         style="fill:#404040" /></g></g><circle
     class="st4"
     cx="348.79999"
     cy="137.79999"
     r="21"
     id="circle5236"
     style="fill:#ffffff;stroke:#404040;stroke-width:4;stroke-linecap:round;stroke-linejoin:round;stroke-miterlimit:10" /><circle
     class="st4"
     cx="265.60001"
     cy="137.79999"
     r="21"
     id="circle5238"
     style="fill:#ffffff;stroke:#404040;stroke-width:4;stroke-linecap:round;stroke-linejoin:round;stroke-miterlimit:10" /><circle
     class="st5"
     cx="389.80002"
     cy="219.79999"
     r="21"
     id="circle5240"
     style="fill:#59afe1;stroke:#404040;stroke-width:4;stroke-linejoin:round;stroke-miterlimit:10" /><path
     class="st6"
     d="m 341.7,305.6 h 96.2 v 50 h -96.2 z"
     id="path5242"
     inkscape:connector-curvature="0"
     style="fill:#b3e3ff;stroke:#404040;stroke-width:4;stroke-linejoin:round;stroke-miterlimit:10" /><path
     class="st0"
     d="m 376.4,336.6 v -8.3 l -3.6,8.3 h -1.3 l -3.6,-8.3 v 8.3 h -1.5 V 326 h 2 l 3.7,8.7 3.8,-8.7 h 2 v 10.6 z m 6.4,-4.1 1.9,-0.3 c 0.4,-0.1 0.6,-0.3 0.6,-0.5 0,-0.7 -0.5,-1.3 -1.6,-1.3 -1,0 -1.5,0.6 -1.6,1.5 l -1.4,-0.3 c 0.2,-1.4 1.4,-2.3 3,-2.3 2.2,0 3,1.2 3,2.6 v 3.6 c 0,0.6 0.1,1 0.1,1.2 h -1.4 c 0,-0.2 -0.1,-0.5 -0.1,-1 -0.3,0.5 -1,1.2 -2.3,1.2 -1.5,0 -2.4,-1 -2.4,-2.2 0,-1.3 1,-2 2.2,-2.2 z m 2.5,1 v -0.3 l -2.2,0.3 c -0.6,0.1 -1.1,0.4 -1.1,1.1 0,0.5 0.4,1 1.2,1 1.2,0.1 2.1,-0.5 2.1,-2.1 z m 5,0.8 c 0.1,0.8 0.7,1.3 1.7,1.3 0.8,0 1.2,-0.4 1.2,-1 0,-0.4 -0.3,-0.8 -0.9,-0.9 l -1.2,-0.3 c -1.1,-0.2 -1.8,-1 -1.8,-2 0,-1.2 1.2,-2.3 2.6,-2.3 2,0 2.6,1.3 2.7,1.9 l -1.2,0.5 c -0.1,-0.4 -0.4,-1.2 -1.5,-1.2 -0.7,0 -1.2,0.5 -1.2,1 0,0.4 0.3,0.8 0.8,0.9 l 1.2,0.3 c 1.3,0.3 2,1.1 2,2.1 0,1 -0.9,2.2 -2.6,2.2 -2,0 -2.8,-1.3 -2.9,-2.1 z m 8.8,-4.9 h 1.6 v 1.3 h -1.6 v 3.8 c 0,0.7 0.3,1 1,1 0.2,0 0.4,0 0.6,-0.1 v 1.2 c -0.1,0 -0.5,0.1 -1,0.1 -1.2,0 -2,-0.8 -2,-2.1 v -4 h -1.4 v -1.3 h 0.4 c 0.8,0 1.1,-0.5 1.1,-1.1 V 327 h 1.3 z m 10.4,5.2 c -0.4,1.3 -1.6,2.3 -3.2,2.3 -1.9,0 -3.6,-1.4 -3.6,-3.9 0,-2.3 1.6,-3.8 3.4,-3.8 2.2,0 3.5,1.5 3.5,3.8 v 0.5 h -5.4 c 0,1.3 1,2.2 2.2,2.2 1.2,0 1.8,-0.6 2,-1.5 z m -1.4,-2.3 c 0,-1 -0.7,-1.8 -2,-1.8 -1.2,0 -1.9,0.9 -2,1.8 z m 8,-1.5 h -0.6 c -1.2,0 -2,0.6 -2,2.2 v 3.6 h -1.4 v -7.2 h 1.4 v 1.3 c 0.5,-1.1 1.4,-1.4 2.2,-1.4 h 0.5 v 1.5 z"
     id="path5244"
     inkscape:connector-curvature="0"
     style="fill:#404040" /><line
     class="st7"
     x1="389.80002"
     y1="262.10001"
     x2="389.80002"
     y2="285.60001"
     id="line5246"
     style="fill:none;stroke:#404040;stroke-width:4;stroke-linecap:round;stroke-linejoin:round;stroke-miterlimit:10" /><polyline
     class="st7"
     points="507,321.9 517.9,311.1 528.7,321.9 "
     id="polyline5248"
     style="fill:none;stroke:#404040;stroke-width:4;stroke-linecap:round;stroke-linejoin:round;stroke-miterlimit:10"
     transform="translate(-128.1,-51.1)" /><path
     class="st8"
     d="m 2,307.3 h 276.2 v 50 H 2 Z"
     id="path5250"
     inkscape:connector-curvature="0"
     style="fill:#b18be8;stroke:#404040;stroke-width:4;stroke-linecap:round;stroke-linejoin:round;stroke-miterlimit:10" /><line
     class="st7"
     x1="140.10001"
     y1="262.10001"
     x2="140.10001"
     y2="285.60001"
     id="line5252"
     style="fill:none;stroke:#404040;stroke-width:4;stroke-linecap:round;stroke-linejoin:round;stroke-miterlimit:10" /><polyline
     class="st7"
     points="257.3,321.9 268.2,311.1 279,321.9 "
     id="polyline5254"
     style="fill:none;stroke:#404040;stroke-width:4;stroke-linecap:round;stroke-linejoin:round;stroke-miterlimit:10"
     transform="translate(-128.1,-51.1)" /><g
     id="g5312"
     transform="translate(-128.1,-51.1)"><path
       class="st0"
       d="m 152.8,388 v -10.7 h 1.5 v 9.3 h 5.1 v 1.4 z"
       id="path5256"
       inkscape:connector-curvature="0"
       style="fill:#404040" /><path
       class="st0"
       d="m 168.2,384.4 c 0,2.2 -1.5,3.9 -3.7,3.9 -2.2,0 -3.7,-1.6 -3.7,-3.9 0,-2.2 1.5,-3.8 3.7,-3.8 2.2,0 3.7,1.6 3.7,3.8 z m -1.4,0 c 0,-1.7 -1.1,-2.6 -2.3,-2.6 -1.2,0 -2.3,0.9 -2.3,2.6 0,1.7 1.1,2.6 2.3,2.6 1.2,0 2.3,-0.9 2.3,-2.6 z"
       id="path5258"
       inkscape:connector-curvature="0"
       style="fill:#404040" /><path
       class="st0"
       d="m 171.4,384.4 c 0,1.7 1,2.5 2.2,2.5 1.4,0 1.9,-0.9 2,-1.5 l 1.3,0.5 c -0.3,1 -1.4,2.3 -3.3,2.3 -2.1,0 -3.7,-1.7 -3.7,-3.9 0,-2.3 1.6,-3.8 3.6,-3.8 1.9,0 2.9,1.2 3.2,2.3 l -1.3,0.5 c -0.2,-0.7 -0.7,-1.5 -1.9,-1.5 -1,0.1 -2.1,0.9 -2.1,2.6 z"
       id="path5260"
       inkscape:connector-curvature="0"
       style="fill:#404040" /><path
       class="st0"
       d="m 180.8,383.9 2,-0.3 c 0.4,-0.1 0.6,-0.3 0.6,-0.5 0,-0.7 -0.5,-1.3 -1.6,-1.3 -1,0 -1.6,0.6 -1.6,1.5 l -1.4,-0.3 c 0.2,-1.4 1.4,-2.4 3,-2.4 2.2,0 3,1.2 3,2.7 v 3.6 c 0,0.6 0.1,1 0.1,1.2 h -1.4 c 0,-0.2 -0.1,-0.5 -0.1,-1 -0.3,0.5 -1,1.2 -2.3,1.2 -1.5,0 -2.4,-1 -2.4,-2.2 -0.1,-1.3 0.9,-2 2.1,-2.2 z m 2.5,1 v -0.3 l -2.2,0.3 c -0.6,0.1 -1.1,0.4 -1.1,1.1 0,0.5 0.5,1.1 1.2,1.1 1.2,0 2.1,-0.6 2.1,-2.2 z"
       id="path5262"
       inkscape:connector-curvature="0"
       style="fill:#404040" /><path
       class="st0"
       d="m 187.5,388 v -10.9 h 1.4 V 388 Z"
       id="path5264"
       inkscape:connector-curvature="0"
       style="fill:#404040" /><path
       class="st0"
       d="m 203,384.4 c 0,2.2 -1.5,3.9 -3.7,3.9 -2.2,0 -3.7,-1.6 -3.7,-3.9 0,-2.2 1.5,-3.8 3.7,-3.8 2.2,0 3.7,1.6 3.7,3.8 z m -1.5,0 c 0,-1.7 -1.1,-2.6 -2.3,-2.6 -1.2,0 -2.3,0.9 -2.3,2.6 0,1.7 1.1,2.6 2.3,2.6 1.2,0 2.3,-0.9 2.3,-2.6 z"
       id="path5266"
       inkscape:connector-curvature="0"
       style="fill:#404040" /><path
       class="st0"
       d="m 209.4,382.2 c -0.2,0 -0.4,0 -0.6,0 -1.2,0 -2,0.6 -2,2.2 v 3.6 h -1.4 v -7.3 h 1.4 v 1.3 c 0.5,-1.1 1.4,-1.4 2.2,-1.4 0.2,0 0.4,0 0.5,0 z"
       id="path5268"
       inkscape:connector-curvature="0"
       style="fill:#404040" /><path
       class="st0"
       d="m 212.1,377 c 0.6,0 1,0.5 1,1 0,0.6 -0.5,1 -1,1 -0.6,0 -1,-0.5 -1,-1 0,-0.5 0.5,-1 1,-1 z m -0.7,11 v -7.3 h 1.4 v 7.3 z"
       id="path5270"
       inkscape:connector-curvature="0"
       style="fill:#404040" /><path
       class="st0"
       d="m 216.6,388.1 c 0.1,1 0.9,1.8 2,1.8 1.5,0 2.2,-0.8 2.2,-2.4 v -1 c -0.3,0.7 -1.1,1.2 -2.2,1.2 -1.9,0 -3.3,-1.5 -3.3,-3.5 0,-2 1.3,-3.5 3.3,-3.5 1.1,0 1.9,0.4 2.2,1.1 v -1 h 1.4 v 6.7 c 0,1.8 -0.9,3.6 -3.6,3.6 -1.8,0 -3.2,-1.1 -3.3,-2.7 z m 4.3,-3.9 c 0,-1.4 -0.8,-2.3 -2.1,-2.3 -1.3,0 -2.1,0.9 -2.1,2.3 0,1.4 0.8,2.3 2.1,2.3 1.2,0 2.1,-0.9 2.1,-2.3 z"
       id="path5272"
       inkscape:connector-curvature="0"
       style="fill:#404040" /><path
       class="st0"
       d="m 225.7,377 c 0.6,0 1,0.5 1,1 0,0.6 -0.5,1 -1,1 -0.6,0 -1,-0.5 -1,-1 0,-0.5 0.5,-1 1,-1 z m -0.7,11 v -7.3 h 1.4 v 7.3 z"
       id="path5274"
       inkscape:connector-curvature="0"
       style="fill:#404040" /><path
       class="st0"
       d="m 230.8,388 h -1.4 v -7.3 h 1.4 v 1 c 0.5,-0.9 1.4,-1.3 2.2,-1.3 1.7,0 2.6,1.3 2.6,2.9 v 4.6 h -1.4 v -4.4 c 0,-1 -0.4,-1.8 -1.7,-1.8 -1.1,0 -1.7,0.9 -1.7,2 z"
       id="path5276"
       inkscape:connector-curvature="0"
       style="fill:#404040" /><path
       class="st0"
       d="m 238.6,388 h -1.4 l 5.2,-10.7 h 1.4 z"
       id="path5278"
       inkscape:connector-curvature="0"
       style="fill:#404040" /><path
       class="st0"
       d="m 244.6,388 v -7.3 h 1.4 v 1 c 0.5,-0.8 1.4,-1.2 2.2,-1.2 0.9,0 1.8,0.4 2.2,1.4 0.6,-1 1.5,-1.4 2.4,-1.4 1.3,0 2.5,0.9 2.5,2.8 v 4.7 h -1.4 v -4.6 c 0,-0.9 -0.5,-1.7 -1.5,-1.7 -1,0 -1.7,0.8 -1.7,1.8 v 4.4 h -1.4 v -4.6 c 0,-0.9 -0.5,-1.7 -1.5,-1.7 -1,0 -1.7,0.8 -1.7,1.8 v 4.4 h -1.5 z"
       id="path5280"
       inkscape:connector-curvature="0"
       style="fill:#404040" /><path
       class="st0"
       d="m 259.8,383.9 2,-0.3 c 0.4,-0.1 0.6,-0.3 0.6,-0.5 0,-0.7 -0.5,-1.3 -1.6,-1.3 -1,0 -1.6,0.6 -1.6,1.5 l -1.4,-0.3 c 0.2,-1.4 1.4,-2.4 3,-2.4 2.2,0 3,1.2 3,2.7 v 3.6 c 0,0.6 0.1,1 0.1,1.2 h -1.4 c 0,-0.2 -0.1,-0.5 -0.1,-1 -0.3,0.5 -1,1.2 -2.3,1.2 -1.5,0 -2.4,-1 -2.4,-2.2 -0.1,-1.3 0.9,-2 2.1,-2.2 z m 2.5,1 v -0.3 l -2.2,0.3 c -0.6,0.1 -1.1,0.4 -1.1,1.1 0,0.5 0.5,1.1 1.2,1.1 1.2,0 2.1,-0.6 2.1,-2.2 z"
       id="path5282"
       inkscape:connector-curvature="0"
       style="fill:#404040" /><path
       class="st0"
       d="m 267.1,385.7 c 0.1,0.8 0.7,1.4 1.7,1.4 0.8,0 1.2,-0.5 1.2,-1 0,-0.5 -0.3,-0.8 -0.9,-0.9 l -1.2,-0.3 c -1.1,-0.2 -1.8,-1 -1.8,-2 0,-1.2 1.2,-2.3 2.6,-2.3 2,0 2.6,1.3 2.8,1.9 l -1.3,0.5 c -0.1,-0.4 -0.4,-1.2 -1.5,-1.2 -0.7,0 -1.2,0.5 -1.2,1 0,0.4 0.3,0.8 0.8,0.9 l 1.2,0.3 c 1.3,0.3 2,1.1 2,2.2 0,1 -0.9,2.2 -2.7,2.2 -2,0 -2.8,-1.3 -3,-2.1 z"
       id="path5284"
       inkscape:connector-curvature="0"
       style="fill:#404040" /><path
       class="st0"
       d="m 275.8,380.8 h 1.6 v 1.3 h -1.6 v 3.8 c 0,0.7 0.3,1 1,1 0.2,0 0.4,0 0.6,-0.1 v 1.2 c -0.1,0 -0.5,0.1 -1,0.1 -1.2,0 -2,-0.8 -2,-2.1 v -4 H 273 v -1.3 h 0.4 c 0.8,0 1.1,-0.5 1.1,-1.1 v -1.2 h 1.3 z"
       id="path5286"
       inkscape:connector-curvature="0"
       style="fill:#404040" /><path
       class="st0"
       d="m 286,386 c -0.4,1.3 -1.6,2.3 -3.3,2.3 -1.9,0 -3.6,-1.4 -3.6,-3.9 0,-2.3 1.6,-3.8 3.5,-3.8 2.2,0 3.5,1.5 3.5,3.8 0,0.2 0,0.4 0,0.5 h -5.5 c 0,1.3 1,2.2 2.2,2.2 1.2,0 1.8,-0.6 2,-1.5 z m -1.4,-2.3 c 0,-1 -0.7,-1.9 -2,-1.9 -1.2,0 -1.9,0.9 -2,1.9 z"
       id="path5288"
       inkscape:connector-curvature="0"
       style="fill:#404040" /><path
       class="st0"
       d="m 292.4,382.2 c -0.2,0 -0.4,0 -0.6,0 -1.2,0 -2,0.6 -2,2.2 v 3.6 h -1.4 v -7.3 h 1.4 v 1.3 c 0.5,-1.1 1.4,-1.4 2.2,-1.4 0.2,0 0.4,0 0.5,0 v 1.6 z"
       id="path5290"
       inkscape:connector-curvature="0"
       style="fill:#404040" /><path
       class="st0"
       d="m 299.5,377 c 0.6,0 1,0.5 1,1 0,0.6 -0.5,1 -1,1 -0.6,0 -1,-0.5 -1,-1 0,-0.5 0.4,-1 1,-1 z m -0.7,11 v -7.3 h 1.4 v 7.3 z"
       id="path5292"
       inkscape:connector-curvature="0"
       style="fill:#404040" /><path
       class="st0"
       d="m 304.6,388 h -1.4 v -7.3 h 1.4 v 1 c 0.5,-0.9 1.4,-1.3 2.2,-1.3 1.7,0 2.6,1.3 2.6,2.9 v 4.6 H 308 v -4.4 c 0,-1 -0.4,-1.8 -1.7,-1.8 -1.1,0 -1.7,0.9 -1.7,2 z"
       id="path5294"
       inkscape:connector-curvature="0"
       style="fill:#404040" /><path
       class="st0"
       d="m 316.7,391.1 1.8,-3.8 -3.1,-6.5 h 1.6 l 2.3,5 2.2,-5 h 1.5 l -4.7,10.3 z"
       id="path5296"
       inkscape:connector-curvature="0"
       style="fill:#404040" /><path
       class="st0"
       d="m 331.4,384.4 c 0,2.2 -1.5,3.9 -3.7,3.9 -2.2,0 -3.7,-1.6 -3.7,-3.9 0,-2.2 1.5,-3.8 3.7,-3.8 2.2,0 3.7,1.6 3.7,3.8 z m -1.4,0 c 0,-1.7 -1.1,-2.6 -2.3,-2.6 -1.2,0 -2.3,0.9 -2.3,2.6 0,1.7 1.1,2.6 2.3,2.6 1.2,0 2.3,-0.9 2.3,-2.6 z"
       id="path5298"
       inkscape:connector-curvature="0"
       style="fill:#404040" /><path
       class="st0"
       d="m 336.3,388.3 c -1.7,0 -2.7,-1.3 -2.7,-2.9 v -4.6 h 1.4 v 4.4 c 0,1 0.5,1.9 1.6,1.9 1.1,0 1.7,-0.8 1.7,-1.9 v -4.4 h 1.4 v 5.9 c 0,0.6 0,1.1 0.1,1.3 h -1.4 c 0,-0.2 -0.1,-0.6 -0.1,-0.9 -0.2,0.8 -1.1,1.2 -2,1.2 z"
       id="path5300"
       inkscape:connector-curvature="0"
       style="fill:#404040" /><path
       class="st0"
       d="m 346.8,382.2 c -0.2,0 -0.4,0 -0.6,0 -1.2,0 -2,0.6 -2,2.2 v 3.6 h -1.4 v -7.3 h 1.4 v 1.3 c 0.5,-1.1 1.4,-1.4 2.2,-1.4 0.2,0 0.4,0 0.5,0 v 1.6 z"
       id="path5302"
       inkscape:connector-curvature="0"
       style="fill:#404040" /><path
       class="st0"
       d="m 357.2,382.2 c -0.2,0 -0.4,0 -0.6,0 -1.2,0 -2,0.6 -2,2.2 v 3.6 h -1.4 v -7.3 h 1.4 v 1.3 c 0.5,-1.1 1.4,-1.4 2.2,-1.4 0.2,0 0.4,0 0.5,0 v 1.6 z"
       id="path5304"
       inkscape:connector-curvature="0"
       style="fill:#404040" /><path
       class="st0"
       d="m 365.5,386 c -0.4,1.3 -1.6,2.3 -3.3,2.3 -1.9,0 -3.6,-1.4 -3.6,-3.9 0,-2.3 1.6,-3.8 3.5,-3.8 2.2,0 3.5,1.5 3.5,3.8 0,0.2 0,0.4 0,0.5 h -5.5 c 0,1.3 1,2.2 2.2,2.2 1.2,0 1.8,-0.6 2,-1.5 z m -1.4,-2.3 c 0,-1 -0.7,-1.9 -2,-1.9 -1.2,0 -1.9,0.9 -2,1.9 z"
       id="path5306"
       inkscape:connector-curvature="0"
       style="fill:#404040" /><path
       class="st0"
       d="m 367.9,390.9 v -10.1 h 1.4 v 1.1 c 0.4,-0.7 1.3,-1.3 2.4,-1.3 2.2,0 3.3,1.7 3.3,3.8 0,2.2 -1.3,3.8 -3.4,3.8 -1.1,0 -2,-0.5 -2.4,-1.2 v 3.8 h -1.3 z m 3.5,-9 c -1.3,0 -2.2,1.1 -2.2,2.5 0,1.5 0.9,2.6 2.2,2.6 1.3,0 2.1,-1.1 2.1,-2.6 0.1,-1.5 -0.7,-2.5 -2.1,-2.5 z"
       id="path5308"
       inkscape:connector-curvature="0"
       style="fill:#404040" /><path
       class="st0"
       d="m 384.2,384.4 c 0,2.2 -1.5,3.9 -3.7,3.9 -2.2,0 -3.7,-1.6 -3.7,-3.9 0,-2.2 1.5,-3.8 3.7,-3.8 2.2,0 3.7,1.6 3.7,3.8 z m -1.5,0 c 0,-1.7 -1.1,-2.6 -2.3,-2.6 -1.2,0 -2.3,0.9 -2.3,2.6 0,1.7 1.1,2.6 2.3,2.6 1.2,0 2.3,-0.9 2.3,-2.6 z"
       id="path5310"
       inkscape:connector-curvature="0"
       style="fill:#404040" /></g><circle
     class="st9"
     cx="433.49997"
     cy="137.79999"
     r="21"
     id="circle5314"
     style="fill:#4ed1a1;stroke:#404040;stroke-width:4;stroke-miterlimit:10" /><g
     id="g5318"
     transform="translate(-128.1,-51.1)"><path
       class="st0"
       d="m 396.1,190.7 h -4.7 l -1.1,3 h -1.6 L 393,183 h 1.7 l 4.3,10.7 h -1.6 z m -4.2,-1.4 h 3.7 l -1.9,-4.8 z"
       id="path5316"
       inkscape:connector-curvature="0"
       style="fill:#404040" /></g><g
     id="g5322"
     transform="translate(-128.1,-51.1)"><path
       class="st0"
       d="m 477.2,183 c 2,0 3.2,1.2 3.2,2.9 0,1.1 -0.7,2 -1.6,2.3 1.2,0.3 1.9,1.4 1.9,2.6 0,1.7 -1.3,2.9 -3.3,2.9 h -3.7 V 183 Z m -0.1,4.7 c 1.2,0 1.9,-0.7 1.9,-1.7 0,-1 -0.7,-1.7 -2,-1.7 h -1.8 v 3.4 z m 0.2,4.7 c 1.2,0 2,-0.7 2,-1.7 0,-1 -0.6,-1.7 -1.9,-1.7 h -2.1 v 3.5 h 2 z"
       id="path5320"
       inkscape:connector-curvature="0"
       style="fill:#404040" /></g><g
     id="g5326"
     transform="translate(-128.1,-51.1)"><path
       class="st0"
       d="m 556.7,188.4 c 0,-3.6 2.7,-5.6 5.3,-5.6 2.4,0 4.2,1.3 4.7,3.4 l -1.4,0.5 c -0.4,-1.6 -1.6,-2.5 -3.3,-2.5 -1.9,0 -3.8,1.4 -3.8,4.2 0,2.8 1.9,4.2 3.8,4.2 1.8,0 3,-1.1 3.4,-2.6 l 1.3,0.5 c -0.6,2 -2.3,3.4 -4.7,3.4 -2.8,0 -5.3,-2 -5.3,-5.5 z"
       id="path5324"
       inkscape:connector-curvature="0"
       style="fill:#404040" /></g><g
     id="g5330"
     transform="translate(-128.1,-51.1)"><path
       class="st0"
       d="M 264.1,275.7 V 265 h 3.7 c 2.7,0 5.1,1.9 5.1,5.4 0,3.5 -2.4,5.3 -5.1,5.3 z m 3.6,-1.3 c 2,0 3.6,-1.3 3.6,-4 0,-2.7 -1.6,-4.1 -3.6,-4.1 h -2.2 v 8.1 z"
       id="path5328"
       inkscape:connector-curvature="0"
       style="fill:#404040" /></g><g
     id="g5334"
     transform="translate(-128.1,-51.1)"><path
       class="st0"
       d="M 348.3,275.7 V 265 h 6.5 v 1.4 h -5 v 3.3 h 4.6 v 1.4 h -4.6 v 3.3 h 5 v 1.4 z"
       id="path5332"
       inkscape:connector-curvature="0"
       style="fill:#404040" /></g><g
     id="g5338"
     transform="translate(-128.1,-51.1)"><path
       class="st0"
       d="M 431.8,275.7 V 265 h 6.5 v 1.4 h -5 v 3.4 h 4.6 v 1.4 h -4.6 v 4.5 z"
       id="path5336"
       inkscape:connector-curvature="0"
       style="fill:#404040" /></g><g
     id="g5342"
     transform="translate(-128.1,-51.1)"><path
       class="st0"
       d="m 521.7,275.8 -0.1,-1.5 c -0.5,0.8 -1.6,1.7 -3.4,1.7 -2.7,0 -5.2,-2 -5.2,-5.6 0,-3.6 2.7,-5.6 5.3,-5.6 2.3,0 4.1,1.3 4.7,3.2 l -1.3,0.6 c -0.5,-1.5 -1.7,-2.4 -3.4,-2.4 -1.9,0 -3.8,1.4 -3.8,4.2 0,2.8 1.8,4.2 3.7,4.2 2.4,0 3.2,-1.7 3.3,-2.8 h -3.7 v -1.3 h 5.1 v 5.2 z"
       id="path5340"
       inkscape:connector-curvature="0"
       style="fill:#404040" /></g></svg>