<?xml version="1.0" encoding="UTF-8" standalone="no"?>
<!-- Generator: Adobe Illustrator 19.0.0, SVG Export Plug-In . SVG Version: 6.00 Build 0)  -->

<svg
   xmlns:dc="http://purl.org/dc/elements/1.1/"
   xmlns:cc="http://creativecommons.org/ns#"
   xmlns:rdf="http://www.w3.org/1999/02/22-rdf-syntax-ns#"
   xmlns:svg="http://www.w3.org/2000/svg"
   xmlns="http://www.w3.org/2000/svg"
   xmlns:sodipodi="http://sodipodi.sourceforge.net/DTD/sodipodi-0.dtd"
   xmlns:inkscape="http://www.inkscape.org/namespaces/inkscape"
   version="1.1"
   id="Capa_1"
   x="0px"
   y="0px"
   viewBox="0 0 476.69 550.26123"
   xml:space="preserve"
   sodipodi:docname="tetris_help.svg"
   inkscape:version="0.92.2 5c3e80d, 2017-08-06"
   width="476.69"
   height="550.26123"><metadata
     id="metadata1121"><rdf:RDF><cc:Work
         rdf:about=""><dc:format>image/svg+xml</dc:format><dc:type
           rdf:resource="http://purl.org/dc/dcmitype/StillImage" /><dc:title></dc:title></cc:Work></rdf:RDF></metadata><defs
     id="defs1119" /><sodipodi:namedview
     pagecolor="#ffffff"
     bordercolor="#666666"
     borderopacity="1"
     objecttolerance="10"
     gridtolerance="10"
     guidetolerance="10"
     inkscape:pageopacity="0"
     inkscape:pageshadow="2"
     inkscape:window-width="1311"
     inkscape:window-height="850"
     id="namedview1117"
     showgrid="false"
     inkscape:zoom="0.88664561"
     inkscape:cx="193.23115"
     inkscape:cy="346.2277"
     inkscape:window-x="0"
     inkscape:window-y="0"
     inkscape:window-maximized="0"
     inkscape:current-layer="Capa_1"
     fit-margin-top="0"
     fit-margin-left="0"
     fit-margin-right="0"
     fit-margin-bottom="0" /><rect
     x="0"
     y="497.29523"
     style="fill:#1f436d"
     width="52.966"
     height="52.966"
     id="rect988" /><rect
     x="52.966003"
     y="497.29523"
     style="fill:#dc691d"
     width="52.966"
     height="52.966"
     id="rect990" /><rect
     x="105.931"
     y="497.29523"
     style="fill:#ed8a19"
     width="52.966"
     height="52.966"
     id="rect992" /><rect
     x="158.897"
     y="497.29523"
     style="fill:#1a8463"
     width="52.966"
     height="52.966"
     id="rect994" /><rect
     x="211.862"
     y="497.29523"
     style="fill:#b02721"
     width="52.966"
     height="52.966"
     id="rect996" /><rect
     x="264.828"
     y="497.29523"
     style="fill:#dd352e"
     width="52.966"
     height="52.966"
     id="rect998" /><rect
     x="317.793"
     y="497.29523"
     style="fill:#b02721"
     width="52.966"
     height="52.966"
     id="rect1000" /><rect
     x="370.759"
     y="497.29523"
     style="fill:#ed8a19"
     width="52.966"
     height="52.966"
     id="rect1002" /><rect
     x="423.724"
     y="497.29523"
     style="fill:#dc691d"
     width="52.966"
     height="52.966"
     id="rect1004" /><rect
     x="0"
     y="444.33023"
     style="fill:#366db6"
     width="52.966"
     height="52.966"
     id="rect1006" /><rect
     x="0"
     y="391.36423"
     style="fill:#1f436d"
     width="52.966"
     height="52.966"
     id="rect1008" /><rect
     x="0"
     y="338.39923"
     style="fill:#366db6"
     width="52.966"
     height="52.966"
     id="rect1010" /><rect
     x="105.66978"
     y="52.966007"
     style="fill:#b02721"
     width="52.966"
     height="52.966"
     id="rect1012" /><g
     id="g1018"
     transform="translate(88.014789,-194.20599)"><rect
       x="17.655001"
       y="194.207"
       style="fill:#dd352e"
       width="52.966"
       height="52.966"
       id="rect1014" /><rect
       x="70.621002"
       y="247.172"
       style="fill:#dd352e"
       width="52.966"
       height="52.966"
       id="rect1016" /></g><rect
     x="158.63579"
     y="0.0010070801"
     style="fill:#b02721"
     width="52.966"
     height="52.966"
     id="rect1020" /><rect
     x="52.966003"
     y="444.33023"
     style="fill:#ed8a19"
     width="52.966"
     height="52.966"
     id="rect1022" /><rect
     x="105.931"
     y="444.33023"
     style="fill:#dc691d"
     width="52.966"
     height="52.966"
     id="rect1024" /><rect
     x="370.49881"
     y="158.89801"
     style="fill:#c1971f"
     width="52.966"
     height="52.966"
     id="rect1026" /><g
     id="g1032"
     transform="translate(-17.915209,105.93201)"><rect
       x="441.379"
       y="52.966"
       style="fill:#ebba16"
       width="52.966"
       height="52.966"
       id="rect1028" /><rect
       x="388.414"
       style="fill:#ebba16"
       width="52.966"
       height="52.966"
       id="rect1030"
       y="0" /></g><rect
     x="423.46381"
     style="fill:#c1971f"
     width="52.966"
     height="52.966"
     id="rect1034"
     y="105.93201" /><rect
     x="158.897"
     y="444.33023"
     style="fill:#25ae88"
     width="52.966"
     height="52.966"
     id="rect1036" /><rect
     x="211.862"
     y="444.33023"
     style="fill:#dd352e"
     width="52.966"
     height="52.966"
     id="rect1038" /><rect
     x="264.828"
     y="444.33023"
     style="fill:#ebba16"
     width="52.966"
     height="52.966"
     id="rect1040" /><rect
     x="317.793"
     y="444.33023"
     style="fill:#c1971f"
     width="52.966"
     height="52.966"
     id="rect1042" /><rect
     x="370.759"
     y="444.33023"
     style="fill:#ebba16"
     width="52.966"
     height="52.966"
     id="rect1044" /><rect
     x="423.724"
     y="444.33023"
     style="fill:#ed8a19"
     width="52.966"
     height="52.966"
     id="rect1046" /><rect
     x="423.724"
     y="391.36423"
     style="fill:#dc691d"
     width="52.966"
     height="52.966"
     id="rect1048" /><rect
     x="317.793"
     y="391.36423"
     style="fill:#ebba16"
     width="52.966"
     height="52.966"
     id="rect1050" /><rect
     x="158.897"
     y="391.36423"
     style="fill:#1a8463"
     width="52.966"
     height="52.966"
     id="rect1052" /><rect
     x="211.862"
     y="391.36423"
     style="fill:#ed8a19"
     width="52.966"
     height="52.966"
     id="rect1054" /><rect
     x="105.931"
     y="391.36423"
     style="fill:#25ae88"
     width="52.966"
     height="52.966"
     id="rect1056" /><rect
     x="158.897"
     y="338.39923"
     style="fill:#ed8a19"
     width="52.966"
     height="52.966"
     id="rect1058" /><rect
     x="211.862"
     y="338.39923"
     style="fill:#dc691d"
     width="52.966"
     height="52.966"
     id="rect1060" /><rect
     x="211.862"
     y="285.43323"
     style="fill:#ed8a19"
     width="52.966"
     height="52.966"
     id="rect1062" /><rect
     x="264.5668"
     y="211.86301"
     style="fill:#25ae88"
     width="52.966"
     height="52.966"
     id="rect1064" /><rect
     x="264.5668"
     y="158.89801"
     style="fill:#1a8463"
     width="52.966"
     height="52.966"
     id="rect1066" /><rect
     x="317.53281"
     y="158.89801"
     style="fill:#25ae88"
     width="52.966"
     height="52.966"
     id="rect1068" /><rect
     x="317.53281"
     style="fill:#1a8463"
     width="52.966"
     height="52.966"
     id="rect1070"
     y="105.93201" /><rect
     x="423.724"
     y="338.39923"
     style="fill:#366db6"
     width="52.966"
     height="52.966"
     id="rect1072" /><rect
     x="423.724"
     y="285.43323"
     style="fill:#1f436d"
     width="52.966"
     height="52.966"
     id="rect1074" /><rect
     x="423.724"
     y="232.46823"
     style="fill:#366db6"
     width="52.966"
     height="52.966"
     id="rect1076" /><rect
     x="264.5668"
     y="52.966003"
     style="fill:#814494"
     width="52.966"
     height="52.966"
     id="rect1078" /><rect
     x="264.5668"
     y="0"
     style="fill:#75348b"
     width="52.966"
     height="52.966"
     id="rect1080" /><rect
     x="211.60179"
     y="0"
     style="fill:#814494"
     width="52.966"
     height="52.966"
     id="rect1082" /><rect
     x="264.5668"
     y="105.931"
     style="fill:#75348b"
     width="52.966"
     height="52.966"
     id="rect1084" /><g
     id="g1086"
     transform="translate(-17.655001,38.261227)" /><g
     id="g1088"
     transform="translate(-17.655001,38.261227)" /><g
     id="g1090"
     transform="translate(-17.655001,38.261227)" /><g
     id="g1092"
     transform="translate(-17.655001,38.261227)" /><g
     id="g1094"
     transform="translate(-17.655001,38.261227)" /><g
     id="g1096"
     transform="translate(-17.655001,38.261227)" /><g
     id="g1098"
     transform="translate(-17.655001,38.261227)" /><g
     id="g1100"
     transform="translate(-17.655001,38.261227)" /><g
     id="g1102"
     transform="translate(-17.655001,38.261227)" /><g
     id="g1104"
     transform="translate(-17.655001,38.261227)" /><g
     id="g1106"
     transform="translate(-17.655001,38.261227)" /><g
     id="g1108"
     transform="translate(-17.655001,38.261227)" /><g
     id="g1110"
     transform="translate(-17.655001,38.261227)" /><g
     id="g1112"
     transform="translate(-17.655001,38.261227)" /><g
     id="g1114"
     transform="translate(-17.655001,38.261227)" /></svg>