<?xml version="1.0" encoding="iso-8859-1"?>
<!-- Generator: Adobe Illustrator 19.0.0, SVG Export Plug-In . SVG Version: 6.00 Build 0)  -->
<svg version="1.1" id="Capa_1" xmlns="http://www.w3.org/2000/svg" xmlns:xlink="http://www.w3.org/1999/xlink" x="0px" y="0px"
	 viewBox="0 0 512 512" style="enable-background:new 0 0 512 512;" xml:space="preserve">
<rect x="17.655" y="459.034" style="fill:#1F436D;" width="52.966" height="52.966"/>
<rect x="70.621" y="459.034" style="fill:#DC691D;" width="52.966" height="52.966"/>
<rect x="123.586" y="459.034" style="fill:#ED8A19;" width="52.966" height="52.966"/>
<rect x="176.552" y="459.034" style="fill:#1A8463;" width="52.966" height="52.966"/>
<rect x="229.517" y="459.034" style="fill:#B02721;" width="52.966" height="52.966"/>
<rect x="282.483" y="459.034" style="fill:#DD352E;" width="52.966" height="52.966"/>
<rect x="335.448" y="459.034" style="fill:#B02721;" width="52.966" height="52.966"/>
<rect x="388.414" y="459.034" style="fill:#ED8A19;" width="52.966" height="52.966"/>
<rect x="441.379" y="459.034" style="fill:#DC691D;" width="52.966" height="52.966"/>
<rect x="17.655" y="406.069" style="fill:#366DB6;" width="52.966" height="52.966"/>
<rect x="17.655" y="353.103" style="fill:#1F436D;" width="52.966" height="52.966"/>
<rect x="17.655" y="300.138" style="fill:#366DB6;" width="52.966" height="52.966"/>
<rect x="17.655" y="247.172" style="fill:#B02721;" width="52.966" height="52.966"/>
<g>
	<rect x="17.655" y="194.207" style="fill:#DD352E;" width="52.966" height="52.966"/>
	<rect x="70.621" y="247.172" style="fill:#DD352E;" width="52.966" height="52.966"/>
</g>
<rect x="70.621" y="194.207" style="fill:#B02721;" width="52.966" height="52.966"/>
<rect x="70.621" y="406.069" style="fill:#ED8A19;" width="52.966" height="52.966"/>
<rect x="123.586" y="406.069" style="fill:#DC691D;" width="52.966" height="52.966"/>
<rect x="388.414" y="52.966" style="fill:#C1971F;" width="52.966" height="52.966"/>
<g>
	<rect x="441.379" y="52.966" style="fill:#EBBA16;" width="52.966" height="52.966"/>
	<rect x="388.414" style="fill:#EBBA16;" width="52.966" height="52.966"/>
</g>
<rect x="441.379" style="fill:#C1971F;" width="52.966" height="52.966"/>
<rect x="176.552" y="406.069" style="fill:#25AE88;" width="52.966" height="52.966"/>
<rect x="229.517" y="406.069" style="fill:#DD352E;" width="52.966" height="52.966"/>
<rect x="282.483" y="406.069" style="fill:#EBBA16;" width="52.966" height="52.966"/>
<rect x="335.448" y="406.069" style="fill:#C1971F;" width="52.966" height="52.966"/>
<rect x="388.414" y="406.069" style="fill:#EBBA16;" width="52.966" height="52.966"/>
<rect x="441.379" y="406.069" style="fill:#ED8A19;" width="52.966" height="52.966"/>
<rect x="441.379" y="353.103" style="fill:#DC691D;" width="52.966" height="52.966"/>
<rect x="335.448" y="353.103" style="fill:#EBBA16;" width="52.966" height="52.966"/>
<rect x="176.552" y="353.103" style="fill:#1A8463;" width="52.966" height="52.966"/>
<rect x="229.517" y="353.103" style="fill:#ED8A19;" width="52.966" height="52.966"/>
<rect x="123.586" y="353.103" style="fill:#25AE88;" width="52.966" height="52.966"/>
<rect x="176.552" y="300.138" style="fill:#ED8A19;" width="52.966" height="52.966"/>
<rect x="229.517" y="300.138" style="fill:#DC691D;" width="52.966" height="52.966"/>
<rect x="229.517" y="247.172" style="fill:#ED8A19;" width="52.966" height="52.966"/>
<rect x="141.241" y="105.931" style="fill:#25AE88;" width="52.966" height="52.966"/>
<rect x="141.241" y="52.966" style="fill:#1A8463;" width="52.966" height="52.966"/>
<rect x="194.207" y="52.966" style="fill:#25AE88;" width="52.966" height="52.966"/>
<rect x="194.207" style="fill:#1A8463;" width="52.966" height="52.966"/>
<rect x="441.379" y="300.138" style="fill:#366DB6;" width="52.966" height="52.966"/>
<rect x="441.379" y="247.172" style="fill:#1F436D;" width="52.966" height="52.966"/>
<rect x="441.379" y="194.207" style="fill:#366DB6;" width="52.966" height="52.966"/>
<rect x="335.448" y="194.207" style="fill:#814494;" width="52.966" height="52.966"/>
<rect x="335.448" y="141.241" style="fill:#75348B;" width="52.966" height="52.966"/>
<rect x="282.483" y="141.241" style="fill:#814494;" width="52.966" height="52.966"/>
<rect x="335.448" y="247.172" style="fill:#75348B;" width="52.966" height="52.966"/>
<g>
</g>
<g>
</g>
<g>
</g>
<g>
</g>
<g>
</g>
<g>
</g>
<g>
</g>
<g>
</g>
<g>
</g>
<g>
</g>
<g>
</g>
<g>
</g>
<g>
</g>
<g>
</g>
<g>
</g>
</svg>
